<?xml version="1.0" encoding="utf-8"?>
<!-- Generator: Adobe Illustrator 16.0.0, SVG Export Plug-In . SVG Version: 6.00 Build 0)  -->
<!DOCTYPE svg PUBLIC "-//W3C//DTD SVG 1.1//EN" "http://www.w3.org/Graphics/SVG/1.1/DTD/svg11.dtd">
<svg version="1.1" id="Layer_1" xmlns:figma="http://www.figma.com/figma/ns"
	 xmlns="http://www.w3.org/2000/svg" xmlns:xlink="http://www.w3.org/1999/xlink" x="0px" y="0px" width="1010.654px"
	 height="121.152px" viewBox="12.587 10.087 1010.654 121.152" enable-background="new 12.587 10.087 1010.654 121.152"
	 xml:space="preserve">
<title>Logo</title>
<g>
	<path fill="#FFFFFF" d="M442.507,126.59c-5.973-3.097-10.619-7.488-13.94-13.179c-3.324-5.688-4.985-12.25-4.985-19.687V47.26
		c0-7.319,1.661-13.798,4.985-19.431c3.321-5.631,7.968-9.995,13.94-13.097c5.969-3.096,12.896-4.646,20.782-4.646
		c7.882,0,14.812,1.521,20.782,4.563c5.969,3.042,10.615,7.323,13.939,12.842c3.321,5.521,4.985,11.885,4.985,19.093
		c0,1.014-0.733,1.635-2.196,1.859l-7.604,0.506h-0.506c-0.451,0-0.844-0.111-1.184-0.339c-0.338-0.225-0.507-0.447-0.507-0.677
		v-1.013c0-7.998-2.534-14.39-7.604-19.178c-5.068-4.787-11.772-7.182-20.105-7.182c-8.338,0-15.039,2.425-20.107,7.268
		c-5.069,4.844-7.604,11.21-7.604,19.093v47.311c0,7.886,2.534,14.251,7.604,19.093c5.068,4.845,11.769,7.267,20.107,7.267
		c8.333,0,15.038-2.393,20.105-7.181c5.07-4.787,7.604-11.178,7.604-19.178c0-1.352,0.731-1.97,2.196-1.857l7.604,0.338
		c1.461,0,2.196,0.282,2.196,0.845v0.847c0,7.322-1.664,13.77-4.985,19.346c-3.324,5.576-7.971,9.885-13.939,12.926
		c-5.971,3.041-12.898,4.563-20.782,4.563C455.402,131.237,448.476,129.69,442.507,126.59z"/>
	<path fill="#FFFFFF" d="M583.929,128.027l-24.668-52.043c-0.228-0.446-0.564-0.676-1.015-0.676H530.03
		c-0.563,0-0.845,0.282-0.845,0.846v51.363c0,1.468-0.733,2.197-2.196,2.197h-7.604c-1.465,0-2.195-0.729-2.195-2.197V13.468
		c0-1.463,0.729-2.196,2.195-2.196h43.254c9.688,0,17.516,2.987,23.486,8.957c5.969,5.972,8.955,13.8,8.955,23.485
		c0,7.886-2.111,14.561-6.336,20.022c-4.225,5.465-9.998,9.039-17.318,10.729c-0.563,0.114-0.732,0.45-0.507,1.016l25.177,51.702
		c0.224,0.45,0.336,0.789,0.336,1.014c0,1.014-0.676,1.521-2.026,1.521h-7.772C585.392,129.716,584.491,129.154,583.929,128.027z
		 M529.185,22.593v42.24c0,0.565,0.279,0.846,0.844,0.846h31.258c6.531,0,11.828-1.999,15.882-5.997
		c4.056-3.996,6.083-9.265,6.083-15.8c0-6.529-2.027-11.854-6.083-15.968c-4.055-4.11-9.352-6.166-15.882-6.166h-31.258
		C529.464,21.749,529.185,22.031,529.185,22.593z"/>
	<path fill="#FFFFFF" d="M682.265,21.916h-61.502c-0.563,0-0.845,0.284-0.845,0.846v41.397c0,0.563,0.28,0.845,0.845,0.845h42.918
		c1.463,0,2.196,0.732,2.196,2.194v6.084c0,1.466-0.733,2.196-2.196,2.196h-42.918c-0.563,0-0.845,0.281-0.845,0.844v42.073
		c0,0.563,0.28,0.845,0.845,0.845h61.502c1.463,0,2.197,0.731,2.197,2.197v6.08c0,1.468-0.734,2.197-2.197,2.197h-72.146
		c-1.465,0-2.197-0.729-2.197-2.197V13.636c0-1.462,0.73-2.195,2.197-2.195h72.146c1.463,0,2.197,0.733,2.197,2.195v6.083
		C684.462,21.186,683.728,21.916,682.265,21.916z"/>
	<path fill="#FFFFFF" d="M765.567,127.858l-6.76-20.614c-0.227-0.449-0.506-0.677-0.846-0.677h-50.351
		c-0.338,0-0.621,0.227-0.846,0.677l-6.59,20.614c-0.339,1.241-1.127,1.857-2.365,1.857h-8.11c-0.789,0-1.351-0.225-1.69-0.677
		c-0.336-0.447-0.396-1.068-0.168-1.857L725.012,13.3c0.338-1.239,1.127-1.858,2.367-1.858h10.813c1.238,0,2.027,0.62,2.365,1.858
		l37.342,113.882c0.111,0.228,0.168,0.508,0.168,0.846c0,0.45-0.197,0.845-0.59,1.183c-0.396,0.338-0.873,0.507-1.436,0.507h-8.111
		C766.69,129.716,765.903,129.098,765.567,127.858z M711.159,96.768h43.424c0.676,0,0.898-0.339,0.676-1.014l-21.965-69.107
		c-0.115-0.447-0.283-0.676-0.51-0.676s-0.395,0.228-0.506,0.676l-21.796,69.107C710.37,96.429,710.595,96.768,711.159,96.768z"/>
	<path fill="#FFFFFF" d="M849.374,13.636v6.253c0,1.465-0.732,2.194-2.195,2.194h-32.443c-0.563,0-0.844,0.282-0.844,0.845v104.59
		c0,1.467-0.734,2.196-2.197,2.196h-7.602c-1.465,0-2.197-0.729-2.197-2.196V22.928c0-0.563-0.283-0.845-0.846-0.845h-31.09
		c-1.465,0-2.195-0.729-2.195-2.194v-6.253c0-1.462,0.73-2.195,2.195-2.195h77.219C848.639,11.441,849.374,12.175,849.374,13.636z"
		/>
	<path fill="#FFFFFF" d="M934.192,21.916h-61.504c-0.564,0-0.846,0.284-0.846,0.846v41.397c0,0.563,0.281,0.845,0.846,0.845h42.92
		c1.461,0,2.193,0.732,2.193,2.194v6.084c0,1.466-0.732,2.196-2.193,2.196h-42.92c-0.564,0-0.846,0.281-0.846,0.844v42.073
		c0,0.563,0.281,0.845,0.846,0.845h61.504c1.463,0,2.195,0.731,2.195,2.197v6.08c0,1.468-0.732,2.197-2.195,2.197h-72.148
		c-1.465,0-2.195-0.729-2.195-2.197V13.636c0-1.462,0.73-2.195,2.195-2.195h72.148c1.463,0,2.195,0.733,2.195,2.195v6.083
		C936.387,21.186,935.655,21.916,934.192,21.916z"/>
	<path fill="#FFFFFF" d="M962.323,127.181c-6.141-2.591-10.869-6.278-14.191-11.068c-3.324-4.785-4.984-10.331-4.984-16.642v-4.73
		c0-1.463,0.73-2.196,2.197-2.196h7.266c1.463,0,2.195,0.733,2.195,2.196v4.056c0,6.421,2.703,11.658,8.111,15.713
		c5.406,4.058,12.672,6.084,21.797,6.084c8.674,0,15.262-1.83,19.77-5.49c4.504-3.659,6.758-8.533,6.758-14.616
		c0-3.94-1.043-7.319-3.127-10.137c-2.086-2.813-5.266-5.463-9.547-7.94s-10.418-5.349-18.416-8.617
		c-8.447-3.38-15.012-6.337-19.684-8.871c-4.676-2.534-8.447-5.8-11.32-9.8c-2.873-3.996-4.309-9.041-4.309-15.122
		c0-9.462,3.295-16.813,9.885-22.051c6.59-5.237,15.686-7.855,27.289-7.855c12.391,0,22.188,2.932,29.4,8.785
		c7.207,5.858,10.813,13.63,10.813,23.317v3.21c0,1.466-0.734,2.196-2.195,2.196h-7.434c-1.469,0-2.197-0.73-2.197-2.196v-2.534
		c0-6.531-2.535-11.882-7.604-16.052c-5.068-4.167-12.225-6.252-21.459-6.252c-8,0-14.109,1.635-18.334,4.9
		c-4.223,3.269-6.334,7.998-6.334,14.191c0,4.056,1.041,7.408,3.125,10.054c2.084,2.647,5.068,4.958,8.957,6.927
		c3.885,1.975,9.824,4.536,17.824,7.688c8.223,3.38,14.869,6.534,19.939,9.464c5.068,2.93,9.123,6.505,12.164,10.729
		c3.041,4.224,4.563,9.378,4.563,15.459c0,9.351-3.463,16.87-10.391,22.557c-6.928,5.689-16.588,8.532-28.979,8.532
		C975.643,131.068,968.461,129.772,962.323,127.181z"/>
</g>
<g>
	<path fill="#FFFFFF" d="M32.694,126.168c-6.421-3.32-11.379-8.025-14.869-14.108c-3.493-6.083-5.238-13.066-5.238-20.952V50.219
		c0-7.996,1.745-15.009,5.238-21.035c3.49-6.025,8.448-10.701,14.869-14.025c6.42-3.321,13.855-4.985,22.304-4.985
		c8.333,0,15.685,1.636,22.049,4.9c6.363,3.269,11.292,7.717,14.786,13.348c3.49,5.635,5.238,11.996,5.238,19.094v0.676
		c0,1.802-0.903,2.703-2.704,2.703H80.343c-0.789,0-1.436-0.141-1.942-0.422c-0.507-0.28-0.761-0.647-0.761-1.1v-1.351
		c0-6.083-2.057-11.095-6.167-15.039c-4.113-3.941-9.604-5.914-16.474-5.914c-6.873,0-12.394,2.057-16.559,6.167
		c-4.169,4.113-6.251,9.546-6.251,16.304V91.78c0,6.758,2.196,12.194,6.589,16.305c4.393,4.113,10.081,6.167,17.065,6.167
		c6.758,0,12.082-1.772,15.967-5.321c3.887-3.549,5.829-8.418,5.829-14.615V84.01c0-0.676-0.337-1.014-1.014-1.014H56.688
		c-1.803,0-2.704-0.899-2.704-2.704V69.142c0-1.802,0.9-2.704,2.704-2.704h37.679c1.8,0,2.704,0.902,2.704,2.704v20.951
		c0,12.956-3.802,23.037-11.406,30.245c-7.603,7.209-17.826,10.814-30.667,10.814C46.549,131.153,39.115,129.493,32.694,126.168z"/>
	<path fill="#FFFFFF" d="M187.127,127.604l-5.238-17.402c-0.113-0.563-0.506-0.845-1.183-0.845h-44.269
		c-0.676,0-1.073,0.282-1.184,0.845l-5.237,17.402c-0.452,1.464-1.465,2.196-3.041,2.196H111.6c-0.903,0-1.55-0.279-1.943-0.845
		c-0.396-0.563-0.481-1.293-0.254-2.196l36.159-113.038c0.448-1.462,1.461-2.196,3.041-2.196h19.77c1.576,0,2.589,0.732,3.041,2.196
		l36.328,113.038c0.11,0.228,0.169,0.564,0.169,1.015c0,1.353-0.791,2.026-2.366,2.026h-15.376
		C188.589,129.801,187.576,129.069,187.127,127.604z M141.338,93.98h34.469c0.676,0,0.956-0.394,0.846-1.183L159.25,35.35
		c-0.114-0.448-0.312-0.677-0.592-0.677c-0.282,0-0.536,0.228-0.759,0.677l-17.403,57.447
		C140.379,93.587,140.662,93.98,141.338,93.98z"/>
	<path fill="#FFFFFF" d="M291.378,68.551c0,0.282,0.225,0.536,0.676,0.761c11.263,5.406,16.896,14.644,16.896,27.71
		c0,10.702-3.578,18.84-10.729,24.415c-7.155,5.574-16.475,8.363-27.963,8.363h-41.904c-1.803,0-2.704-0.898-2.704-2.703V14.228
		c0-1.802,0.901-2.704,2.704-2.704h40.552c12.277,0,21.739,2.647,28.386,7.94c6.646,5.298,9.968,13.293,9.968,23.993
		c0,11.604-5.067,19.77-15.208,24.5C291.604,68.073,291.378,68.271,291.378,68.551z M245.251,29.436v30.921
		c0,0.676,0.337,1.014,1.014,1.014h22.641c5.969,0,10.672-1.436,14.109-4.309c3.435-2.872,5.153-6.844,5.153-11.912
		c0-5.18-1.718-9.265-5.153-12.25c-3.437-2.983-8.14-4.479-14.109-4.479h-22.641C245.588,28.421,245.251,28.76,245.251,29.436z
		 M284.198,108.004c3.435-3.15,5.153-7.434,5.153-12.841c0-5.518-1.749-9.827-5.239-12.926c-3.493-3.097-8.224-4.646-14.192-4.646
		h-23.655c-0.677,0-1.014,0.337-1.014,1.015v33.117c0,0.676,0.337,1.014,1.014,1.014h23.993
		C276.114,112.735,280.76,111.16,284.198,108.004z"/>
	<path fill="#FFFFFF" d="M408.132,28.421h-56.771c-0.68,0-1.016,0.338-1.016,1.015v31.258c0,0.677,0.338,1.015,1.016,1.015h37.846
		c1.801,0,2.705,0.902,2.705,2.703v11.49c0,1.803-0.904,2.704-2.705,2.704h-37.846c-0.68,0-1.016,0.338-1.016,1.014v32.271
		c0,0.676,0.338,1.014,1.016,1.014h56.771c1.799,0,2.701,0.903,2.701,2.703v11.489c0,1.805-0.902,2.703-2.701,2.703h-74.684
		c-1.805,0-2.703-0.898-2.703-2.703V14.228c0-1.802,0.898-2.704,2.703-2.704h74.684c1.799,0,2.701,0.902,2.701,2.704v11.488
		C410.835,27.522,409.933,28.421,408.132,28.421z"/>
</g>
</svg>
