<?xml version="1.0" encoding="utf-8"?>
<!-- Generator: Adobe Illustrator 16.0.0, SVG Export Plug-In . SVG Version: 6.00 Build 0)  -->
<!DOCTYPE svg PUBLIC "-//W3C//DTD SVG 1.1//EN" "http://www.w3.org/Graphics/SVG/1.1/DTD/svg11.dtd">
<svg version="1.1" id="Layer_1" xmlns:figma="http://www.figma.com/figma/ns"
	 xmlns="http://www.w3.org/2000/svg" xmlns:xlink="http://www.w3.org/1999/xlink" x="0px" y="0px" width="599.659px"
	 height="254.351px" viewBox="10.776 10.174 599.659 254.351" enable-background="new 10.776 10.174 599.659 254.351"
	 xml:space="preserve">
<title>Logo</title>
<g>
	<path fill="#FFFFFF" d="M29.701,259.876c-5.972-3.097-10.619-7.489-13.94-13.179c-3.324-5.688-4.985-12.25-4.985-19.686v-46.464
		c0-7.32,1.661-13.798,4.985-19.431c3.321-5.631,7.968-9.995,13.94-13.097c5.969-3.095,12.896-4.646,20.783-4.646
		c7.882,0,14.811,1.521,20.782,4.562c5.969,3.042,10.616,7.324,13.94,12.842c3.321,5.521,4.985,11.885,4.985,19.093
		c0,1.014-0.733,1.635-2.196,1.859l-7.604,0.506h-0.506c-0.451,0-0.844-0.111-1.183-0.339c-0.338-0.224-0.507-0.447-0.507-0.676
		v-1.013c0-7.998-2.534-14.39-7.604-19.178c-5.069-4.787-11.773-7.182-20.106-7.182c-8.338,0-15.039,2.425-20.108,7.268
		c-5.069,4.844-7.603,11.21-7.603,19.093v47.31c0,7.886,2.534,14.251,7.603,19.093c5.069,4.845,11.769,7.267,20.108,7.267
		c8.333,0,15.038-2.393,20.106-7.181c5.069-4.787,7.604-11.178,7.604-19.178c0-1.351,0.731-1.969,2.196-1.857l7.604,0.338
		c1.461,0,2.196,0.282,2.196,0.845v0.846c0,7.322-1.664,13.77-4.985,19.346c-3.324,5.576-7.971,9.885-13.94,12.926
		c-5.971,3.041-12.899,4.562-20.782,4.562C42.596,264.523,35.67,262.976,29.701,259.876z"/>
	<path fill="#FFFFFF" d="M171.124,261.313l-24.669-52.043c-0.227-0.446-0.564-0.675-1.014-0.675h-28.217
		c-0.564,0-0.844,0.282-0.844,0.845v51.364c0,1.467-0.734,2.197-2.197,2.197h-7.604c-1.465,0-2.196-0.73-2.196-2.197v-114.05
		c0-1.463,0.73-2.197,2.196-2.197h43.254c9.687,0,17.515,2.988,23.486,8.957c5.969,5.972,8.955,13.8,8.955,23.486
		c0,7.886-2.112,14.56-6.336,20.022c-4.224,5.465-9.998,9.039-17.318,10.729c-0.564,0.114-0.733,0.45-0.507,1.015l25.176,51.703
		c0.224,0.45,0.337,0.789,0.337,1.013c0,1.014-0.676,1.521-2.027,1.521h-7.772C172.586,263.002,171.685,262.44,171.124,261.313z
		 M116.379,155.879v42.24c0,0.565,0.28,0.846,0.844,0.846h31.258c6.531,0,11.828-1.999,15.882-5.997
		c4.055-3.997,6.083-9.265,6.083-15.8c0-6.53-2.027-11.854-6.083-15.968c-4.055-4.11-9.352-6.166-15.882-6.166h-31.258
		C116.659,155.035,116.379,155.317,116.379,155.879z"/>
	<path fill="#FFFFFF" d="M269.46,155.202h-61.502c-0.564,0-0.845,0.284-0.845,0.846v41.397c0,0.564,0.28,0.845,0.845,0.845h42.918
		c1.463,0,2.196,0.732,2.196,2.194v6.084c0,1.466-0.733,2.196-2.196,2.196h-42.918c-0.564,0-0.845,0.282-0.845,0.844v42.073
		c0,0.564,0.28,0.845,0.845,0.845h61.502c1.463,0,2.197,0.732,2.197,2.197v6.081c0,1.467-0.734,2.197-2.197,2.197h-72.147
		c-1.465,0-2.197-0.73-2.197-2.197V146.923c0-1.462,0.73-2.196,2.197-2.196h72.147c1.463,0,2.197,0.734,2.197,2.196v6.083
		C271.657,154.472,270.923,155.202,269.46,155.202z"/>
	<path fill="#FFFFFF" d="M352.761,261.144l-6.759-20.614c-0.228-0.449-0.507-0.677-0.846-0.677h-50.351
		c-0.338,0-0.621,0.227-0.846,0.677l-6.59,20.614c-0.338,1.242-1.127,1.858-2.365,1.858h-8.11c-0.789,0-1.351-0.225-1.69-0.677
		c-0.337-0.447-0.396-1.068-0.169-1.857l37.172-113.882c0.338-1.24,1.126-1.859,2.366-1.859h10.813c1.239,0,2.027,0.62,2.366,1.859
		l37.342,113.882c0.11,0.227,0.168,0.507,0.168,0.845c0,0.45-0.198,0.845-0.591,1.183c-0.397,0.338-0.873,0.507-1.436,0.507h-8.111
		C353.885,263.002,353.098,262.385,352.761,261.144z M298.353,230.054h43.423c0.677,0,0.9-0.338,0.677-1.013l-21.966-69.108
		c-0.114-0.447-0.282-0.675-0.508-0.675c-0.227,0-0.396,0.227-0.506,0.675l-21.797,69.108
		C297.564,229.716,297.789,230.054,298.353,230.054z"/>
	<path fill="#FFFFFF" d="M436.568,146.923v6.253c0,1.464-0.733,2.194-2.196,2.194H401.93c-0.564,0-0.845,0.282-0.845,0.845v104.589
		c0,1.467-0.734,2.197-2.197,2.197h-7.602c-1.465,0-2.197-0.73-2.197-2.197V156.215c0-0.563-0.282-0.845-0.845-0.845h-31.09
		c-1.465,0-2.195-0.73-2.195-2.194v-6.253c0-1.462,0.73-2.196,2.195-2.196h77.218C435.834,144.727,436.568,145.461,436.568,146.923z
		"/>
	<path fill="#FFFFFF" d="M521.387,155.202h-61.504c-0.565,0-0.846,0.284-0.846,0.846v41.397c0,0.564,0.28,0.845,0.846,0.845h42.919
		c1.461,0,2.194,0.732,2.194,2.194v6.084c0,1.466-0.733,2.196-2.194,2.196h-42.919c-0.565,0-0.846,0.282-0.846,0.844v42.073
		c0,0.564,0.28,0.845,0.846,0.845h61.504c1.462,0,2.194,0.732,2.194,2.197v6.081c0,1.467-0.732,2.197-2.194,2.197h-72.149
		c-1.465,0-2.196-0.73-2.196-2.197V146.923c0-1.462,0.731-2.196,2.196-2.196h72.149c1.462,0,2.194,0.734,2.194,2.196v6.083
		C523.582,154.472,522.849,155.202,521.387,155.202z"/>
	<path fill="#FFFFFF" d="M549.518,260.468c-6.141-2.591-10.871-6.279-14.193-11.069c-3.323-4.785-4.983-10.331-4.983-16.641v-4.731
		c0-1.463,0.73-2.196,2.196-2.196h7.266c1.463,0,2.196,0.733,2.196,2.196v4.056c0,6.421,2.703,11.658,8.11,15.713
		c5.407,4.057,12.673,6.084,21.797,6.084c8.674,0,15.263-1.83,19.77-5.491c4.504-3.659,6.758-8.533,6.758-14.616
		c0-3.94-1.043-7.319-3.126-10.136c-2.086-2.814-5.267-5.463-9.547-7.941c-4.282-2.477-10.419-5.349-18.416-8.617
		c-8.448-3.38-15.012-6.337-19.685-8.871c-4.675-2.534-8.446-5.8-11.319-9.8c-2.873-3.996-4.309-9.041-4.309-15.122
		c0-9.462,3.295-16.813,9.885-22.051c6.59-5.237,15.686-7.855,27.289-7.855c12.39,0,22.188,2.931,29.399,8.785
		c7.208,5.858,10.813,13.63,10.813,23.317v3.21c0,1.466-0.733,2.196-2.195,2.196h-7.434c-1.468,0-2.197-0.73-2.197-2.196v-2.534
		c0-6.531-2.534-11.882-7.604-16.052c-5.068-4.167-12.224-6.252-21.458-6.252c-8,0-14.109,1.635-18.334,4.901
		c-4.222,3.268-6.334,7.998-6.334,14.191c0,4.056,1.04,7.408,3.125,10.054c2.084,2.647,5.069,4.958,8.957,6.927
		c3.885,1.974,9.825,4.536,17.825,7.688c8.221,3.38,14.869,6.534,19.938,9.464s9.124,6.505,12.165,10.729
		c3.041,4.224,4.563,9.378,4.563,15.459c0,9.351-3.464,16.87-10.392,22.557c-6.928,5.689-16.588,8.532-28.978,8.532
		C562.838,264.354,555.656,263.058,549.518,260.468z"/>
</g>
<g>
	<path fill="#FFFFFF" d="M32.694,126.168c-6.421-3.321-11.379-8.026-14.869-14.109c-3.493-6.083-5.238-13.066-5.238-20.952V50.219
		c0-7.997,1.745-15.009,5.238-21.036c3.49-6.025,8.448-10.701,14.869-14.025c6.42-3.321,13.855-4.985,22.304-4.985
		c8.333,0,15.685,1.635,22.049,4.9c6.363,3.269,11.292,7.717,14.786,13.348c3.49,5.634,5.238,11.996,5.238,19.093v0.676
		c0,1.802-0.903,2.703-2.704,2.703H80.343c-0.789,0-1.436-0.14-1.942-0.422c-0.507-0.28-0.761-0.647-0.761-1.099v-1.351
		c0-6.083-2.057-11.094-6.167-15.039c-4.113-3.941-9.604-5.914-16.474-5.914c-6.873,0-12.394,2.057-16.559,6.167
		c-4.169,4.113-6.251,9.546-6.251,16.304v42.241c0,6.758,2.196,12.194,6.589,16.305c4.393,4.113,10.081,6.167,17.065,6.167
		c6.758,0,12.082-1.773,15.967-5.322c3.887-3.548,5.829-8.418,5.829-14.615V84.01c0-0.676-0.337-1.014-1.014-1.014H56.688
		c-1.803,0-2.704-0.9-2.704-2.704V69.142c0-1.801,0.9-2.704,2.704-2.704h37.679c1.8,0,2.704,0.903,2.704,2.704v20.952
		c0,12.956-3.802,23.037-11.406,30.245c-7.603,7.209-17.826,10.814-30.667,10.814C46.549,131.153,39.115,129.493,32.694,126.168z"/>
	<path fill="#FFFFFF" d="M187.127,127.604l-5.238-17.402c-0.113-0.563-0.506-0.845-1.183-0.845h-44.269
		c-0.676,0-1.073,0.282-1.184,0.845l-5.237,17.402c-0.452,1.464-1.465,2.197-3.041,2.197h-15.375c-0.903,0-1.55-0.28-1.943-0.845
		c-0.396-0.563-0.481-1.293-0.254-2.196l36.159-113.039c0.448-1.461,1.461-2.196,3.041-2.196h19.77c1.576,0,2.589,0.733,3.041,2.196
		l36.328,113.039c0.11,0.227,0.169,0.564,0.169,1.014c0,1.353-0.791,2.027-2.366,2.027h-15.376
		C188.589,129.801,187.576,129.069,187.127,127.604z M141.338,93.98h34.469c0.676,0,0.956-0.393,0.846-1.182L159.25,35.35
		c-0.114-0.448-0.312-0.676-0.592-0.676c-0.282,0-0.536,0.227-0.759,0.676l-17.403,57.448
		C140.379,93.587,140.662,93.98,141.338,93.98z"/>
	<path fill="#FFFFFF" d="M291.378,68.551c0,0.282,0.225,0.536,0.676,0.76c11.263,5.407,16.897,14.644,16.897,27.71
		c0,10.702-3.578,18.84-10.729,24.415c-7.155,5.575-16.475,8.364-27.963,8.364h-41.904c-1.803,0-2.704-0.899-2.704-2.704V14.228
		c0-1.801,0.901-2.704,2.704-2.704h40.552c12.277,0,21.739,2.648,28.386,7.941c6.646,5.297,9.969,13.293,9.969,23.993
		c0,11.603-5.068,19.769-15.208,24.5C291.604,68.073,291.378,68.271,291.378,68.551z M245.251,29.436v30.921
		c0,0.676,0.337,1.014,1.014,1.014h22.641c5.969,0,10.672-1.436,14.109-4.309c3.435-2.872,5.153-6.843,5.153-11.912
		c0-5.18-1.718-9.264-5.153-12.25c-3.437-2.983-8.14-4.479-14.109-4.479h-22.641C245.588,28.421,245.251,28.76,245.251,29.436z
		 M284.198,108.004c3.435-3.151,5.153-7.434,5.153-12.841c0-5.518-1.749-9.827-5.239-12.926c-3.493-3.097-8.224-4.646-14.192-4.646
		h-23.655c-0.677,0-1.014,0.337-1.014,1.014v33.117c0,0.676,0.337,1.014,1.014,1.014h23.993
		C276.114,112.735,280.76,111.16,284.198,108.004z"/>
	<path fill="#FFFFFF" d="M408.133,28.421H351.36c-0.678,0-1.014,0.338-1.014,1.014v31.258c0,0.677,0.337,1.015,1.014,1.015h37.847
		c1.801,0,2.705,0.902,2.705,2.703v11.49c0,1.803-0.904,2.704-2.705,2.704H351.36c-0.678,0-1.014,0.338-1.014,1.014v32.271
		c0,0.676,0.337,1.014,1.014,1.014h56.772c1.8,0,2.702,0.903,2.702,2.703v11.489c0,1.805-0.902,2.704-2.702,2.704h-74.684
		c-1.803,0-2.703-0.899-2.703-2.704V14.228c0-1.801,0.9-2.704,2.703-2.704h74.684c1.8,0,2.702,0.903,2.702,2.704v11.489
		C410.835,27.522,409.933,28.421,408.133,28.421z"/>
</g>
</svg>
